<svg width="150" height="150" viewBox="0 0 150 150" fill="none" xmlns="http://www.w3.org/2000/svg">
<g id="Group" clip-path="url(#clip0_0_423)">
<circle id="Oval Copy" cx="75" cy="75" r="75" fill="white"/>
<path id="EXPLORE" d="M31.5379 85C31.5379 85.04 31.6179 85.0133 31.7779 84.92C31.9379 84.8133 32.0779 84.6133 32.1979 84.32C32.3312 84.0133 32.3979 83.5733 32.3979 83V73.18C32.3979 72.6333 32.3312 72.22 32.1979 71.94C32.0779 71.6467 31.9379 71.4467 31.7779 71.34C31.6179 71.2333 31.5379 71.2 31.5379 71.24H38.7779V73.24C38.5379 72.44 37.8179 72.04 36.6179 72.04H33.8379V77.72H37.2779C37.5446 77.72 37.7712 77.68 37.9579 77.6C38.1446 77.5067 38.2846 77.4133 38.3779 77.32C38.4712 77.2267 38.5246 77.1667 38.5379 77.14V79.08C38.5246 79.0533 38.4712 78.9933 38.3779 78.9C38.2846 78.8067 38.1446 78.72 37.9579 78.64C37.7846 78.56 37.5646 78.52 37.2979 78.52H33.8379V84.2H36.9579C37.5579 84.2 38.0712 84.08 38.4979 83.84C38.9379 83.5867 39.2512 83.2667 39.4379 82.88L39.0779 85H31.5379ZM51.758 85C51.998 84.96 52.118 84.84 52.118 84.64C52.118 84.4 52.018 84.1333 51.818 83.84C51.618 83.5333 51.5047 83.36 51.478 83.32L48.678 79L45.538 83.2C45.338 83.4667 45.178 83.7067 45.058 83.92C44.9514 84.12 44.898 84.3067 44.898 84.48C44.898 84.7733 45.1114 84.9467 45.538 85H42.538C42.538 85.0267 42.618 84.9933 42.778 84.9C42.938 84.8067 43.1647 84.62 43.458 84.34C43.7647 84.0467 44.1314 83.6133 44.558 83.04L48.198 78.22L44.978 73.24C44.6047 72.6667 44.2714 72.2333 43.978 71.94C43.6847 71.6467 43.4447 71.4533 43.258 71.36C43.0714 71.2533 42.978 71.2133 42.978 71.24H46.318C46.0647 71.2933 45.938 71.42 45.938 71.62C45.938 71.82 46.0847 72.1467 46.378 72.6L49.158 76.92L52.058 73.08C52.4714 72.5333 52.678 72.0933 52.678 71.76C52.678 71.4533 52.478 71.28 52.078 71.24H55.058C55.058 71.2267 54.9714 71.26 54.798 71.34C54.638 71.4067 54.4247 71.56 54.158 71.8C53.9047 72.0267 53.6114 72.3667 53.278 72.82L49.638 77.68L52.858 82.68C53.2847 83.3467 53.6647 83.8533 53.998 84.2C54.3314 84.5333 54.598 84.76 54.798 84.88C54.998 84.9867 55.098 85.0267 55.098 85H51.758ZM67.3845 74.96C67.3845 75.7333 67.1978 76.4267 66.8245 77.04C66.4645 77.64 65.9445 78.1133 65.2645 78.46C64.5845 78.8067 63.7845 78.98 62.8645 78.98C62.3045 78.98 61.7045 78.92 61.0645 78.8V83.16C61.0645 83.68 61.1311 84.08 61.2645 84.36C61.3978 84.6267 61.5445 84.8067 61.7045 84.9C61.8645 84.9933 61.9445 85.0267 61.9445 85H58.7645C58.7645 85.0267 58.8445 84.9933 59.0045 84.9C59.1645 84.8067 59.3045 84.6267 59.4245 84.36C59.5578 84.0933 59.6245 83.6933 59.6245 83.16V73.14C59.6245 72.6067 59.5578 72.2 59.4245 71.92C59.3045 71.64 59.1645 71.4533 59.0045 71.36C58.8445 71.2533 58.7645 71.2133 58.7645 71.24H62.6845C63.3645 71.24 63.9245 71.2867 64.3645 71.38C64.8045 71.46 65.1911 71.5867 65.5245 71.76C66.1245 72.0667 66.5845 72.5133 66.9045 73.1C67.2245 73.6733 67.3845 74.2933 67.3845 74.96ZM65.8445 75.22C65.8445 74.2733 65.5511 73.5067 64.9645 72.92C64.3778 72.3333 63.5978 72.04 62.6245 72.04H61.0645V78.02C61.6378 78.1267 62.2378 78.18 62.8645 78.18C63.7978 78.18 64.5245 77.9133 65.0445 77.38C65.5778 76.8333 65.8445 76.1133 65.8445 75.22ZM71.8315 73.1C71.8315 72.5667 71.7648 72.1667 71.6315 71.9C71.5115 71.62 71.3715 71.4333 71.2115 71.34C71.0515 71.2467 70.9715 71.2133 70.9715 71.24H74.1515C74.1515 71.2133 74.0715 71.2467 73.9115 71.34C73.7515 71.4333 73.6048 71.62 73.4715 71.9C73.3382 72.1667 73.2715 72.5667 73.2715 73.1V84.2H76.5515C77.1515 84.2 77.6648 84.08 78.0915 83.84C78.5315 83.5867 78.8448 83.2667 79.0315 82.88L78.6715 85H70.9715C70.9715 85.04 71.0515 85.0133 71.2115 84.92C71.3715 84.8133 71.5115 84.6133 71.6315 84.32C71.7648 84.0133 71.8315 83.5733 71.8315 83V73.1ZM81.6062 78.28C81.6062 76.8667 81.9062 75.6067 82.5062 74.5C83.1195 73.3933 83.9728 72.5333 85.0662 71.92C86.1728 71.3067 87.4462 71 88.8862 71C90.0862 71 91.2062 71.2667 92.2462 71.8C93.2995 72.32 94.1395 73.1067 94.7662 74.16C95.4062 75.2133 95.7262 76.48 95.7262 77.96C95.7262 79.3733 95.4195 80.6333 94.8062 81.74C94.2062 82.8467 93.3528 83.7067 92.2462 84.32C91.1528 84.9333 89.8862 85.24 88.4462 85.24C87.2462 85.24 86.1195 84.98 85.0662 84.46C84.0262 83.9267 83.1862 83.1333 82.5462 82.08C81.9195 81.0267 81.6062 79.76 81.6062 78.28ZM94.1262 78.26C94.1262 77.0467 93.8728 75.9533 93.3662 74.98C92.8728 73.9933 92.1862 73.2267 91.3062 72.68C90.4395 72.12 89.4595 71.84 88.3662 71.84C87.3662 71.84 86.4728 72.0933 85.6862 72.6C84.9128 73.1067 84.3062 73.8267 83.8662 74.76C83.4262 75.68 83.2062 76.7533 83.2062 77.98C83.2062 79.1933 83.4528 80.2933 83.9462 81.28C84.4528 82.2533 85.1395 83.02 86.0062 83.58C86.8862 84.1267 87.8728 84.4 88.9662 84.4C89.9662 84.4 90.8528 84.1467 91.6262 83.64C92.4128 83.1333 93.0262 82.42 93.4662 81.5C93.9062 80.5667 94.1262 79.4867 94.1262 78.26ZM103.663 78.08C104.277 78.08 104.81 77.94 105.263 77.66C105.717 77.3667 106.057 76.9933 106.283 76.54C106.523 76.0733 106.643 75.5867 106.643 75.08C106.643 74.56 106.53 74.0733 106.303 73.62C106.09 73.1533 105.757 72.7733 105.303 72.48C104.85 72.1867 104.297 72.04 103.643 72.04H101.943V83.16C101.943 83.6933 102.01 84.1 102.143 84.38C102.277 84.6467 102.423 84.8267 102.583 84.92C102.743 85 102.823 85.0267 102.823 85H99.6434C99.6434 85.0267 99.7234 84.9933 99.8834 84.9C100.043 84.8067 100.183 84.6267 100.303 84.36C100.437 84.0933 100.503 83.6933 100.503 83.16V73.16C100.503 72.6133 100.437 72.2 100.303 71.92C100.183 71.6267 100.043 71.4333 99.8834 71.34C99.7234 71.2333 99.6434 71.2 99.6434 71.24H103.603C104.643 71.24 105.497 71.4133 106.163 71.76C106.843 72.0933 107.33 72.5333 107.623 73.08C107.93 73.6133 108.083 74.2 108.083 74.84C108.083 75.3733 107.957 75.9 107.703 76.42C107.45 76.9267 107.083 77.3733 106.603 77.76C106.137 78.1333 105.59 78.3933 104.963 78.54L104.643 78.6L108.163 83.08C108.63 83.6 109.017 84 109.323 84.28C109.63 84.56 109.85 84.7467 109.983 84.84C110.13 84.9333 110.217 84.9867 110.243 85H107.903L102.463 78.08H103.663ZM113.296 85C113.296 85.04 113.376 85.0133 113.536 84.92C113.696 84.8133 113.836 84.6133 113.956 84.32C114.089 84.0133 114.156 83.5733 114.156 83V73.18C114.156 72.6333 114.089 72.22 113.956 71.94C113.836 71.6467 113.696 71.4467 113.536 71.34C113.376 71.2333 113.296 71.2 113.296 71.24H120.536V73.24C120.296 72.44 119.576 72.04 118.376 72.04H115.596V77.72H119.036C119.302 77.72 119.529 77.68 119.716 77.6C119.902 77.5067 120.042 77.4133 120.136 77.32C120.229 77.2267 120.282 77.1667 120.296 77.14V79.08C120.282 79.0533 120.229 78.9933 120.136 78.9C120.042 78.8067 119.902 78.72 119.716 78.64C119.542 78.56 119.322 78.52 119.056 78.52H115.596V84.2H118.716C119.316 84.2 119.829 84.08 120.256 83.84C120.696 83.5867 121.009 83.2667 121.196 82.88L120.836 85H113.296Z" fill="#0B0D17"/>
</g>
<defs>
<clipPath id="clip0_0_423">
<rect width="150" height="150" fill="white"/>
</clipPath>
</defs>
</svg>
